<?xml version="1.0" encoding="UTF-8"?>
<svg xmlns="http://www.w3.org/2000/svg" xmlns:xlink="http://www.w3.org/1999/xlink"
     width="1000" height="1000" viewBox="0 0 1000 1000">
<defs>
</defs>
<g transform="scale(1,-1)">
<path d="M710.0,-741.0" stroke-width="20" stroke="green" fill="transparent">
<animate keyTimes="0;0.00;0.02;1" repeatCount="indefinite" attributeName="display" dur="4.40s" begin="0s" values="none;inline;none;none" />
</path>
<path d="M710.0,-741.0 L710.0,-741.0 L710.0,-741.0 L715.0,-714.0" stroke-width="20" stroke="green" fill="transparent">
<animate keyTimes="0;0.02;0.05;1" repeatCount="indefinite" attributeName="display" dur="4.40s" begin="0s" values="none;inline;none;none" />
</path>
<path d="M715.0,-714.0 L715.0,-714.0 L715.0,-714.0 L753.0,-687.0" stroke-width="20" stroke="green" fill="transparent">
<animate keyTimes="0;0.05;0.07;1" repeatCount="indefinite" attributeName="display" dur="4.40s" begin="0s" values="none;inline;none;none" />
</path>
<path d="M753.0,-687.0 L753.0,-687.0 L753.0,-687.0 L95.0,-242.0" stroke-width="20" stroke="green" fill="transparent">
<animate keyTimes="0;0.07;0.09;1" repeatCount="indefinite" attributeName="display" dur="4.40s" begin="0s" values="none;inline;none;none" />
</path>
<path d="M95.0,-242.0 L90.635056,-230.36498999999998 L191.91905,-279.37415 L355.60434,-362.9248 L498.30699999999996,-402.59546 L549.2232,-405.21765 L608.9946,-397.77893 L615.03687,-393.96313 L610.0839,-390.0504 L546.0516,-375.57214 L452.6646,-363.77942 L357.27185,-358.19727 L249.25227,-363.74976000000004 L164.89866999999998,-379.5592 L99.43268,-396.85582999999997 L84.0,-402.0 L66.7455,-404.80957 L51.5,-407.5 L47.262809999999995,-408.5475 L42.506157,-409.0 L50.83396,-406.33313 L104.24650600000001,-383.43335 L208.50676,-340.66138 L286.11664,-305.7052 L360.85593,-276.58032000000003 L426.78485,-260.20435 L480.5585,-250.78748 L512.49036,-254.1051 L518.0,-255.5 L516.0,-255.0 L882.0,-223.0" stroke-width="20" stroke="green" fill="transparent">
<animate keyTimes="0;0.09;0.11;1" repeatCount="indefinite" attributeName="display" dur="4.40s" begin="0s" values="none;inline;none;none" />
</path>
<path d="M882.0,-223.0 L870.8584599999999,-227.48926 L829.37286,-245.0946 L732.5,-279.5 L652.4045,-303.88232 L535.63135,-330.45557 L428.2917,-351.94165 L319.92014,-375.3246 L234.5189,-393.2693 L203.0,-399.0 L174.50931,-402.88745 L134.27753,-408.34033 L121.0,-410.0 L116.469826,-410.0 L112.0,-409.44214 L122.54856000000001,-403.9806 L128.0,-401.0 L128.0,-401.0 L165.0,-417.0" stroke-width="20" stroke="green" fill="transparent">
<animate keyTimes="0;0.11;0.14;1" repeatCount="indefinite" attributeName="display" dur="4.40s" begin="0s" values="none;inline;none;none" />
</path>
<path d="M165.0,-417.0 L165.0,-415.125 L180.55995,-400.19434 L240.1048,-358.1505 L370.0,-283.0 L410.83994,-259.88806 L506.0847,-203.61023 L523.5,-191.5 L524.0,-187.3114 L511.21643,-187.0 L435.28702000000004,-205.7395 L341.84157999999996,-241.55127000000002 L248.5,-272.5 L224.80191000000002,-281.3994 L191.1065,-292.94678 L215.50467000000003,-306.25232 L259.89162999999996,-330.08092999999997 L295.21857,-363.3927 L328.67636,-410.1272 L347.43015,-463.15076 L353.64133,-502.48938 L357.98947000000004,-530.9474 L404.0238,-558.6319599999999 L485.21524000000005,-546.6792 L584.5744599999999,-501.23328 L754.55133,-426.5995 L811.30206,-402.8706 L814.0,-401.01636 L810.0,-401.0 L808.0,-401.0 L806.2114,-401.0 L805.5,-401.0 L805.0,-398.5935 L805.0,-397.0 L829.7946,-367.18800000000005 L848.0,-346.5 L876.94775,-305.589 L920.437,-245.60497999999998 L950.4651,-189.20935 L950.1617,-182.58081 L948.0,-181.5 L863.5,-218.0 L799.20636,-268.2157 L659.8968,-415.20337 L612.9327,-471.06726 L548.9119999999999,-516.6781 L520.69867,-511.72803 L444.0876,-449.81445 L337.9357,-356.18445 L289.75487999999996,-319.12903 L220.64655,-252.26647999999997 L209.5,-232.0 L206.28482,-222.85449 L202.6229,-202.229 L207.97495,-189.7251 L222.41817999999998,-176.11914 L264.0,-169.0 L285.17758,-177.83751999999998 L334.0,-212.0 L344.55994,-233.94495 L353.26172,-332.34252999999995 L338.22205,-378.7921 L318.50806,-411.2379 L316.5,-413.5 L316.81326,-414.0 L336.90247,-406.40955 L395.66238,-383.77917 L431.0,-372.0 L471.9264,-369.71594 L571.2180000000001,-367.0 L780.8326400000001,-396.54456 L859.6257300000001,-409.61694 L928.5,-417.5 L946.95715,-418.1223 L966.6127,-419.0 L974.0,-417.06237999999996 L955.7199,-389.40783999999996 L935.2813,-354.87817 L928.0,-342.5 L910.2868699999999,-303.23315 L889.94855,-253.45067999999998 L881.0,-227.5 L877.29663,-215.97118999999998 L872.5,-203.5 L871.00775,-192.0387 L869.0,-182.0 L867.55853,-178.23413 L865.633,-171.89905 L863.5,-169.5 L860.69574,-167.8479 L822.5,-163.5 L809.2803,-162.85681 L720.0,-164.5 L646.8475,-171.25732 L522.6947,-188.90735 L295.39786000000004,-233.00732000000002 L202.66266000000002,-253.62462999999997 L136.32509,-262.49487 L90.5,-262.5 L87.46664,-260.3667 L83.45076,-257.9015 L92.5,-250.0 L91.0,-251.0 L904.0,-554.0" stroke-width="20" stroke="green" fill="transparent">
<animate keyTimes="0;0.14;0.16;1" repeatCount="indefinite" attributeName="display" dur="4.40s" begin="0s" values="none;inline;none;none" />
</path>
<path d="M904.0,-554.0 L897.5,-555.5 L889.9399,-562.0600599999999 L867.0,-585.0 L849.1698,-606.65027 L825.0239,-639.1328 L793.0,-680.5 L782.3276400000001,-695.8965 L775.5,-705.0 L767.94836,-712.05164 L763.0,-717.0 L757.11475,-721.3082 L752.5,-725.0 L755.0,-723.0 L375.0,-535.0" stroke-width="20" stroke="green" fill="transparent">
<animate keyTimes="0;0.16;0.18;1" repeatCount="indefinite" attributeName="display" dur="4.40s" begin="0s" values="none;inline;none;none" />
</path>
<path d="M375.0,-535.0 L439.5439,-501.6942 L525.0382,-461.06165 L618.6511,-412.1056 L780.31665,-313.37842 L833.3512599999999,-275.16638 L870.5,-250.5 L884.1055,-243.94727000000003 L891.6235,-241.79224 L891.5,-254.0 L886.52875,-264.13097999999997 L865.5,-317.0 L847.3064,-351.3872 L826.8815,-393.32532000000003 L802.60236,-469.98815999999994 L800.5,-480.5 L798.58014,-503.61816 L796.0,-540.2473 L797.5,-592.5 L797.0,-606.0863 L797.0,-612.0 L797.0,-612.0 L944.0,-503.0" stroke-width="20" stroke="green" fill="transparent">
<animate keyTimes="0;0.18;0.20;1" repeatCount="indefinite" attributeName="display" dur="4.40s" begin="0s" values="none;inline;none;none" />
</path>
<path d="M944.0,-503.0 L943.0,-508.94372999999996 L940.58105,-518.6758 L939.5,-523.0 L938.62885,-525.1134 L936.5,-530.0 L934.76025,-533.4795 L928.7384,-538.2616 L918.0,-552.0 L912.8374,-558.2090000000001 L889.0,-588.5 L875.829,-607.8395 L870.0,-616.0 L851.4151,-637.09705 L841.0,-649.0 L822.7004,-668.0353 L799.5,-691.5 L769.50085,-721.65283 L757.5,-735.5 L745.3518,-750.5896 L735.0,-762.0 L735.0,-762.0 L743.0,-537.0" stroke-width="20" stroke="green" fill="transparent">
<animate keyTimes="0;0.20;0.23;1" repeatCount="indefinite" attributeName="display" dur="4.40s" begin="0s" values="none;inline;none;none" />
</path>
<path d="M743.0,-537.0 L762.5,-498.0 L759.09265,-505.3379 L797.5,-454.0 L895.0,-312.0 L916.17523,-273.1787 L928.7387,-245.27637000000001 L924.2465,-209.2876 L888.3038300000001,-193.73718 L814.64404,-187.14111 L726.14594,-195.75769 L691.5,-200.0 L634.9429,-212.35863999999998 L549.4717400000001,-231.12195 L485.85717999999997,-243.44897000000003 L461.0,-247.0 L450.41333,-248.54882999999998 L439.0,-249.5 L434.97614000000004,-249.0 L431.0,-249.0 L430.55222000000003,-249.0 L430.0,-249.0 L463.68604000000005,-264.86548 L504.0,-290.5 L547.901,-326.42578 L583.5,-352.0 L607.29364,-365.68994 L637.0,-370.0 L654.84705,-359.09412000000003 L685.02765,-329.16675 L727.0,-240.5 L733.21027,-218.57947000000001 L735.5,-214.0 L736.70374,-212.59252999999998 L737.5,-211.0 L740.2686,-213.26855 L742.0,-215.0 L750.6337,-242.3518 L756.0,-266.5 L759.31055,-313.68323 L768.8822,-391.2931 L782.5,-474.5 L788.4465299999999,-522.93384 L790.3041400000001,-550.8666 L790.0,-568.1045 L786.0,-577.0 L780.38135,-579.3093 L762.2384599999999,-581.0 L733.5,-573.0 L709.5648,-559.31384 L669.7856,-531.4880400000001 L613.0,-484.5 L587.45074,-460.45068 L520.5095,-402.50952 L503.10607999999996,-386.71777000000003 L496.0,-380.5 L492.73257,-378.29944 L489.0,-375.5 L488.48852999999997,-375.48852999999997 L487.5,-374.5 L486.54578,-375.0 L486.54578,-375.0 L496.71533,-381.02917 L503.5,-386.0 L502.0,-385.0 L98.0,-695.0" stroke-width="20" stroke="green" fill="transparent">
<animate keyTimes="0;0.23;0.25;1" repeatCount="indefinite" attributeName="display" dur="4.40s" begin="0s" values="none;inline;none;none" />
</path>
<path d="M98.0,-695.0 L116.0,-694.0 L152.15767,-694.0 L213.946,-694.8733 L279.92877000000004,-698.5388 L305.5,-700.0 L352.06265,-702.51685 L414.9817,-706.3114 L468.0,-710.0 L496.0,-713.5 L516.24005,-718.4094 L531.5,-722.0 L533.0,-722.0 L533.0,-722.0 L617.0,-247.0" stroke-width="20" stroke="green" fill="transparent">
<animate keyTimes="0;0.25;0.27;1" repeatCount="indefinite" attributeName="display" dur="4.40s" begin="0s" values="none;inline;none;none" />
</path>
<path d="M617.0,-247.0 L592.5,-228.5 L580.3231,-224.10767 L547.9499,-219.09998 L537.5,-218.0 L491.4443,-220.83704 L425.3105,-229.34692 L362.19363,-237.48058999999998 L342.0,-239.5 L284.39102,-239.70483 L256.15378,-231.5769 L255.0,-228.0 L265.3824,-221.7815 L319.5,-208.5 L357.70645,-207.04456000000002 L408.5381,-206.0 L422.0,-206.0 L456.5013,-206.0 L490.5421,-206.76953 L501.5,-207.5 L519.7569599999999,-211.09082 L531.0,-213.5 L546.8019400000001,-219.90099999999998 L555.0,-224.0 L555.0,-224.0 L962.0,-549.0" stroke-width="20" stroke="green" fill="transparent">
<animate keyTimes="0;0.27;0.30;1" repeatCount="indefinite" attributeName="display" dur="4.40s" begin="0s" values="none;inline;none;none" />
</path>
<path d="M962.0,-549.0 L962.0,-549.0 L962.0,-549.0 L595.0,-542.0" stroke-width="20" stroke="green" fill="transparent">
<animate keyTimes="0;0.30;0.32;1" repeatCount="indefinite" attributeName="display" dur="4.40s" begin="0s" values="none;inline;none;none" />
</path>
<path d="M595.0,-542.0 L593.5,-539.0 L595.2011,-529.79346 L604.6938,-503.1499 L627.0,-448.0 L648.0072,-403.9856 L688.0,-328.0 L705.5239,-290.1792 L723.62646,-248.26207999999997 L731.5216,-220.10938 L733.0,-210.5 L729.8189,-201.18384 L727.5,-195.0 L715.7285,-188.54613999999998 L704.5,-182.5 L670.90875,-178.19092 L644.0,-175.5 L605.7322,-179.07922 L503.51196,-187.47437 L472.20853,-189.0 L460.5,-189.0 L456.5,-186.5 L457.0,-187.0 L551.0,-372.0" stroke-width="20" stroke="green" fill="transparent">
<animate keyTimes="0;0.32;0.34;1" repeatCount="indefinite" attributeName="display" dur="4.40s" begin="0s" values="none;inline;none;none" />
</path>
<path d="M551.0,-372.0 L548.0,-369.0 L530.8401,-357.22668 L500.87775,-342.47192 L470.51455999999996,-329.8058 L446.34005999999994,-319.14172 L440.0,-316.5 L427.3347,-312.11157000000003 L407.0,-304.0 L399.0,-298.5 L391.32114,-291.32117 L388.0,-288.0 L381.49807999999996,-283.6654 L376.0,-280.0 L369.09943,-275.21387000000004 L362.5,-270.5 L351.51736,-265.00806 L338.5,-259.0 L325.8562,-254.36694 L311.0,-248.0 L276.0955,-234.11365 L250.0,-225.0 L239.70944,-221.56982000000002 L231.5,-219.5 L229.88234,-219.0 L227.5,-219.0 L231.01021,-217.99658 L260.0,-215.5 L277.48514,-214.12622000000002 L285.0,-213.5 L306.21487,-214.0 L316.5,-214.0 L333.04492,-212.24622000000002 L349.94702,-212.0 L355.5,-212.0 L361.28253,-211.0 L365.5,-211.0 L367.18927,-210.0 L369.0,-210.0 L369.53586,-209.0 L370.5,-209.0 L370.5,-209.0 L370.5,-209.0 L369.0,-209.0 L366.61658,-209.0 L364.5,-209.0 L362.79938,-209.0 L360.5,-210.5 L357.82277999999997,-214.26587 L345.0,-231.0 L328.09087999999997,-247.14685 L318.5,-256.0 L297.87335,-278.4431 L262.01697,-316.33386 L245.0,-332.5 L228.08916000000002,-349.95667000000003 L195.67883,-386.32117 L172.5,-406.5 L165.5,-414.5 L159.90305,-419.09692 L153.87498,-424.5625 L152.0,-425.5 L150.49074,-426.50928 L149.5,-427.5 L148.56236,-427.0 L156.0,-428.5 L169.9641,-429.0 L177.5,-429.0 L176.0,-429.0 L497.0,-235.0" stroke-width="20" stroke="green" fill="transparent">
<animate keyTimes="0;0.34;0.36;1" repeatCount="indefinite" attributeName="display" dur="4.40s" begin="0s" values="none;inline;none;none" />
</path>
<path d="M497.0,-235.0 L497.0,-235.0 L500.0,-243.0 L515.1912,-266.40857 L547.0,-308.5 L577.79987,-346.19982999999996 L607.286,-379.32678 L630.0,-405.5 L633.7509,-411.66785 L635.5,-414.0 L636.0,-415.86426 L636.0,-416.5 L631.7779,-416.0 L629.0,-416.0 L605.28845,-411.39172 L590.5,-407.5 L549.7112,-391.28893999999997 L522.5,-379.0 L477.90518,-360.6372 L407.35938,-328.60205 L347.89435,-296.2069 L305.03085,-276.245 L291.5,-270.0 L281.11533,-267.37183 L268.38327000000004,-270.92517000000004 L269.0,-277.0 L269.0,-277.0 L393.0,-567.0" stroke-width="20" stroke="green" fill="transparent">
<animate keyTimes="0;0.36;0.39;1" repeatCount="indefinite" attributeName="display" dur="4.40s" begin="0s" values="none;inline;none;none" />
</path>
<path d="M393.0,-567.0 L429.0,-551.0 L463.31185999999997,-533.5552 L541.80536,-490.48694000000006 L639.5,-427.5 L706.9754,-377.31726000000003 L764.22064,-333.23082999999997 L810.326,-300.7323 L834.0738,-283.219 L848.5,-272.0 L852.0401,-268.95996 L855.5,-266.5 L855.0,-271.0 L855.0,-278.85315 L855.0,-284.5 L853.3584599999999,-299.9818 L852.5,-312.0 L847.0686,-332.1394 L833.0583,-377.31787 L806.5,-458.5 L801.9001,-472.71985 L796.5,-490.0 L792.19116,-503.78833 L788.3942,-519.1202400000001 L785.5,-526.5 L783.77386,-527.2262 L781.5,-527.0 L777.8265,-522.82654 L751.0,-504.5 L723.9889999999999,-494.13867 L664.3244599999999,-482.4585 L646.5,-480.0 L614.5,-479.0 L574.5,-483.0 L531.466,-487.91455 L471.5734,-501.89014000000003 L444.0,-510.0 L423.32027999999997,-525.3406 L402.5,-537.0 L386.30078,-547.2632 L376.5,-553.5 L372.1474,-557.2821 L367.5,-561.0 L365.98236,-562.5088 L364.0,-563.5 L363.56300000000005,-564.0 L362.5,-564.0 L363.0,-557.0 L363.0,-520.2562 L355.0,-481.0 L337.19757000000004,-439.23132000000004 L307.15775,-397.39917 L276.58636,-357.53125 L237.0,-316.5 L225.52602000000002,-301.65747000000005 L221.0,-296.0 L217.27794,-290.3706 L215.5,-288.0 L214.14097999999998,-283.42285 L213.5,-281.5 L217.79788,-277.20215 L221.5,-273.5 L261.90997000000004,-258.3634 L287.0,-250.0 L341.64365,-234.83911 L448.63135,-216.95569 L559.33685,-213.53601 L673.072,-220.41711 L776.5268,-230.13817999999998 L873.2131300000001,-238.42847000000003 L942.3467,-239.31152000000003 L1005.26324,-235.78942999999998 L1008.5,-233.5 L1006.5,-231.5 L980.3297,-223.84766000000002 L895.0,-223.5 L836.4189,-228.68921 L763.8912,-231.84692 L734.5,-232.5 L689.053,-232.0 L656.5,-232.0 L619.2537,-228.52147999999997 L583.5,-227.0 L561.1886599999999,-226.3197 L532.5,-225.5 L516.3969999999999,-223.37634 L501.5,-222.5 L477.10445999999996,-221.0 L459.5,-221.0 L452.84872,-220.48108 L445.0,-219.5 L441.1299,-220.0 L437.0,-220.0 L436.0,-222.5 L436.0,-224.29407 L436.0,-224.0 L755.0,-340.0" stroke-width="20" stroke="green" fill="transparent">
<animate keyTimes="0;0.39;0.41;1" repeatCount="indefinite" attributeName="display" dur="4.40s" begin="0s" values="none;inline;none;none" />
</path>
<path d="M755.0,-340.0 L755.0,-340.0 L752.19995,-342.80005 L744.0,-367.0 L734.678,-414.13903999999997 L721.0,-487.5 L712.09937,-541.25366 L699.0,-609.5 L693.7560000000001,-643.281 L686.5,-676.0 L683.1225,-687.51 L682.0,-692.0 L679.22,-699.4501 L678.0,-702.5 L676.16437,-706.5069599999999 L675.5,-708.5 L674.222,-710.556 L673.5,-712.0 L674.0,-713.7229 L674.0,-714.5 L674.0,-715.0 L674.0,-715.0 L674.0,-715.0 L674.0,-715.0 L1028.0,-307.0" stroke-width="20" stroke="green" fill="transparent">
<animate keyTimes="0;0.41;0.43;1" repeatCount="indefinite" attributeName="display" dur="4.40s" begin="0s" values="none;inline;none;none" />
</path>
<path d="M1028.0,-307.0 L1028.0,-307.0 L1028.0,-307.0 L1028.0,-307.0 L1028.0,-307.0 L1021.5,-302.0 L1016.2199,-298.932 L987.0,-288.5 L949.6197,-276.2881 L876.0,-262.0 L824.5,-253.0 L800.33777,-251.30945 L684.0,-240.5 L614.9064,-238.95873999999998 L506.0,-233.5 L461.7482,-229.39452999999997 L408.1523,-225.3435 L375.1906,-221.49084 L365.5,-220.0 L358.3778,-218.27551 L352.61667,-216.30835 L351.0,-215.5 L352.597,-214.40308 L353.5,-213.5 L377.0,-209.5 L426.0,-202.0 L516.0,-197.5 L548.2685,-199.0 L593.5,-199.0 L650.9989,-200.36206 L746.0,-206.5 L801.05145,-206.75916 L825.5,-207.5 L876.0,-203.0 L899.1510599999999,-199.64148 L905.0,-196.5 L899.7353,-193.86768 L826.0,-187.0 L748.7083,-194.80298 L660.95844,-207.04663 L630.0,-212.0 L577.3082,-230.12646 L513.85583,-256.68773999999996 L471.73834000000005,-278.93396 L458.5,-287.5 L448.38864,-307.9004 L440.0,-323.0 L439.39745999999997,-334.8329 L438.5,-346.5 L443.5,-372.0 L446.00012000000004,-378.00037000000003 L448.0,-384.0 L449.43627999999995,-386.30884 L450.5,-389.5 L451.36227,-390.7246 L449.5,-391.0 L441.77905,-393.03687 L391.5,-388.5 L357.71542,-374.65637000000004 L292.5,-348.0 L246.79527000000002,-330.50146 L192.5,-302.0 L169.18716,-293.47485 L160.5,-290.0 L150.0,-287.0 L141.0,-286.0 L127.84473999999999,-286.0 L121.0,-286.0 L116.413574,-287.7173 L112.5,-288.5 L109.60538999999999,-290.39465 L108.0,-292.0 L106.363,-300.09607 L105.5,-307.0 L111.42953500000002,-320.28747999999996 L117.0,-330.5 L140.0,-356.0 L165.29321000000002,-379.54285 L195.5,-403.5 L294.5,-457.5 L375.1404,-491.22522000000004 L452.0,-520.0 L469.56417999999996,-533.50745 L583.5,-584.5 L640.1558,-616.4607 L700.77954,-632.4746 L753.0,-643.0 L766.3697,-644.937 L772.0,-645.5 L777.5,-646.5 L778.5,-646.0 L780.5,-646.0 L779.6594,-646.0 L774.0,-644.5 L743.6966,-633.47864 L682.5,-601.5 L647.5,-572.0 L600.4224,-541.4798599999999 L500.23615,-474.4818 L477.5,-447.0 L421.6066,-403.91626 L373.5,-366.5 L349.3321,-346.9402 L277.5,-303.0 L229.9933,-277.62842 L204.0,-261.5 L198.54965,-256.54967999999997 L198.0,-253.0 L219.82697000000002,-243.67834 L297.5,-227.5 L354.65067,-225.08105 L371.5,-224.5 L437.0,-225.0 L476.5387,-227.0 L492.5,-227.0 L502.5916,-230.38025 L511.5,-232.0 L514.07227,-232.6908 L516.5,-233.5 L516.0,-234.62366 L516.0,-235.5 L506.14362,-242.57092000000003 L495.0,-250.0 L454.8593,-268.0586 L431.0,-278.0 L325.5,-331.0 L289.01306,-346.9934 L249.08246,-363.18555 L231.0,-372.0 L227.47916,-373.17357999999996 L224.5,-374.0 L222.93306,-374.0 L222.93306,-374.0 L222.93306,-374.0 L226.65192000000002,-377.65186 L228.5,-379.5 L233.0,-387.5 L232.0,-386.0 L147.0,-404.0" stroke-width="20" stroke="green" fill="transparent">
<animate keyTimes="0;0.43;0.45;1" repeatCount="indefinite" attributeName="display" dur="4.40s" begin="0s" values="none;inline;none;none" />
</path>
<path d="M147.0,-404.0 L147.0,-394.5 L150.03716,-384.9071 L154.0,-375.0 L164.64328,-355.17773 L175.0,-335.5 L184.59216,-315.3982 L196.5,-290.5 L206.0,-267.5 L218.1054,-240.4884 L229.5,-221.0 L234.56046,-214.25269 L245.5,-206.5 L255.39824,-206.0 L310.0939,-228.547 L347.5,-248.0 L390.0,-266.0 L438.2396,-291.54114 L466.5,-306.0 L525.48395,-335.68494 L563.0,-353.0 L613.75586,-388.3418 L653.5,-412.5 L707.1058,-437.73132000000004 L737.0,-456.0 L786.91425,-480.45715 L812.0,-493.0 L870.5,-525.5 L896.5081,-541.50464 L915.5,-552.5 L921.0258,-557.5935 L931.7828400000001,-567.7828400000001 L935.65375,-570.6538 L936.0,-572.2715 L934.7823,-574.2178 L901.5838,-583.81335 L900.0,-584.0 L900.0,-584.0 L414.0,-211.0" stroke-width="20" stroke="green" fill="transparent">
<animate keyTimes="0;0.45;0.48;1" repeatCount="indefinite" attributeName="display" dur="4.40s" begin="0s" values="none;inline;none;none" />
</path>
<path d="M414.0,-211.0 L462.12518,-210.0 L532.8628,-211.13512999999998 L611.6643,-215.1366 L682.82654,-219.04858 L750.0,-221.5 L770.7107,-222.91406 L779.5,-223.5 L793.5,-225.5 L793.0,-228.0 L795.0,-228.5 L794.0,-228.0 L546.0,-377.0" stroke-width="20" stroke="green" fill="transparent">
<animate keyTimes="0;0.48;0.50;1" repeatCount="indefinite" attributeName="display" dur="4.40s" begin="0s" values="none;inline;none;none" />
</path>
<path d="M546.0,-377.0 L544.0,-376.0 L527.66125,-370.9076 L455.5,-357.0 L412.0,-349.5 L363.0,-342.5 L318.5,-335.5 L267.5,-328.5 L191.0,-317.0 L158.76997,-311.20898 L138.0,-307.5 L122.0,-302.5 L111.0,-299.0 L105.13286000000001,-296.71094 L100.0,-295.0 L97.82244,-294.41125 L96.0,-293.5 L97.5,-294.0 L116.56141000000001,-302.78076 L137.0,-313.0 L292.0,-410.0 L322.309,-431.5581 L393.0,-499.5 L431.79727,-543.15894 L474.0,-583.0 L487.51114,-599.6389 L495.5,-612.0 L496.95834,-613.9584 L497.5,-614.5 L497.0,-615.0 L495.53128,-613.53125 L493.0,-611.0 L486.5,-600.0 L469.53845,-570.2604 L459.5,-552.5 L442.38452,-507.9613 L432.0,-482.0 L417.69086,-431.72717 L407.0,-405.0 L380.0,-334.0 L369.51114,-299.03174 L362.5,-279.0 L357.0,-259.0 L345.0,-228.0 L343.754,-226.75402999999997 L341.5,-228.5 L339.5,-234.0 L345.0,-246.0 L345.0,-246.0 L234.0,-415.0" stroke-width="20" stroke="green" fill="transparent">
<animate keyTimes="0;0.50;0.52;1" repeatCount="indefinite" attributeName="display" dur="4.40s" begin="0s" values="none;inline;none;none" />
</path>
<path d="M234.0,-415.0 L243.5,-415.0 L263.6758,-413.95178 L318.5,-404.5 L356.67647999999997,-388.5824 L370.5,-382.5 L388.0,-371.5 L402.0,-362.0 L416.34857,-346.6515 L423.5,-339.5 L434.12405,-326.34497000000005 L440.0,-319.0 L448.0,-306.0 L448.67699999999996,-302.969 L449.5,-300.5 L450.0,-298.7744 L450.0,-295.0 L450.0,-294.5 L452.5,-291.0 L459.55524,-288.66675 L468.0,-285.5 L483.3842,-281.46167 L545.5,-273.0 L591.1929,-270.46716000000004 L654.0,-271.0 L716.5,-271.0 L781.5,-271.0 L820.2118,-266.92432 L856.5,-260.5 L872.1130400000001,-254.32251000000002 L878.5,-252.0 L884.3215,-249.27136000000002 L887.5,-248.0 L888.818,-246.18200000000002 L889.5,-245.5 L890.0,-245.0 L890.0,-245.0 L890.0,-245.0 L890.0,-245.0 L900.0,-244.0 L913.5,-242.5 L938.0,-240.5 L952.2613,-236.4347 L966.0,-230.5 L975.5,-223.0 L982.25,-215.75 L988.0,-207.5 L990.01825,-204.9635 L992.5,-202.5 L992.0,-201.5 L994.5,-202.0 L998.1389,-202.71301 L1000.5,-203.5 L1003.5,-204.5 L1008.0,-205.5 L1013.5,-205.0 L1017.0,-205.0 L1019.5,-203.5 L1020.0,-201.5 L1020.0,-199.5 L1018.5,-197.5 L1017.6067,-196.60669 L1017.0,-197.0 L1017.0,-194.5 L1017.0,-194.0 L1014.5,-193.0 L1013.07324,-192.07324 L1012.5,-191.5 L1011.14136,-191.14136000000002 L1010.5,-190.5 L1005.77234,-188.38611 L1003.0,-187.0 L976.0,-179.0 L934.0,-170.0 L899.80005,-163.96362 L773.0,-157.0 L710.1252400000001,-157.0 L664.5,-157.0 L604.8343,-161.88538 L539.0,-166.0 L413.5,-180.0 L359.70285,-181.0 L321.5,-176.0 L315.25287000000003,-172.81323 L312.5,-170.5 L314.0693,-170.0 L338.0,-177.0 L355.47266,-188.69238 L362.0,-192.5 L392.0,-218.5 L409.95328,-244.16613999999998 L418.5,-256.0 L425.4031,-269.0343 L430.5,-278.5 L436.63477,-296.45044 L440.5,-306.5 L446.5,-322.0 L449.83035,-326.05054 L452.5,-330.5 L455.63507000000004,-335.7251 L458.5,-340.5 L463.02002000000005,-345.52502000000004 L467.0,-350.5 L467.91125,-352.36682 L467.0,-351.0 L424.0,-214.0" stroke-width="20" stroke="green" fill="transparent">
<animate keyTimes="0;0.52;0.55;1" repeatCount="indefinite" attributeName="display" dur="4.40s" begin="0s" values="none;inline;none;none" />
</path>
<path d="M424.0,-214.0 L416.0,-210.0 L401.5,-206.0 L389.25018,-203.96155 L376.5,-202.0 L357.91472999999996,-201.55078 L339.0,-200.5 L273.0,-200.0 L237.80684,-202.58983999999998 L193.5,-215.0 L172.64433,-228.44957999999997 L155.5,-244.5 L145.5248,-262.95044 L144.0,-323.0 L150.5,-343.5 L164.02065,-371.04126 L169.5,-382.0 L187.0,-402.0 L199.0,-414.0 L202.17113,-416.4474 L204.5,-418.0 L205.66753,-419.66747999999995 L206.5,-420.5 L207.56158,-421.0 L208.5,-421.0 L209.55206,-421.0 L210.5,-421.0 L214.0,-422.5 L225.21152,-424.31592 L257.5,-425.0 L285.0,-418.5 L314.5723,-410.19617 L339.5,-402.5 L347.40112,-400.9198 L355.5,-401.0 L360.76342999999997,-402.9408 L363.0,-403.5 L374.83124,-406.74023 L380.5,-408.0 L402.12088,-409.77185 L414.5,-410.5 L433.0,-408.5 L504.60425,-376.13696 L533.5,-359.5 L583.113,-326.0232 L614.0,-302.0 L712.0,-227.0 L739.7132,-204.20996 L781.5,-177.0 L793.8156,-169.3833 L819.5,-155.0 L835.7268,-155.0 L851.0,-155.0 L860.5,-164.0 L876.7413,-209.22375 L867.5,-294.5 L847.7434,-375.7954 L813.0,-468.0 L803.56244,-496.38562 L792.0,-530.0 L789.07666,-534.885 L788.0,-536.5 L787.09045,-536.90955 L786.5,-537.5 L784.299,-537.0 L783.0,-537.0 L781.0,-537.0 L776.0,-534.0 L763.21027,-527.2671 L752.5,-521.5 L730.0491,-507.69665999999995 L715.0,-498.5 L656.5,-470.5 L626.7501,-450.0404 L596.5,-431.5 L577.8613,-421.2024 L552.5,-407.0 L532.13635,-394.44922 L514.5,-382.0 L477.7499,-351.7307 L460.5,-339.5 L456.31454,-334.31458 L453.5,-330.0 L452.03107,-329.031 L451.5,-328.5 L451.0,-326.94397000000004 L451.0,-324.5 L451.0,-324.5 L451.0,-326.0 L453.5,-332.5 L454.5,-338.5 L454.0,-336.0 L580.0,-555.0" stroke-width="20" stroke="green" fill="transparent">
<animate keyTimes="0;0.55;0.57;1" repeatCount="indefinite" attributeName="display" dur="4.40s" begin="0s" values="none;inline;none;none" />
</path>
<path d="M580.0,-555.0 L584.42773,-549.0963 L609.7422,-520.5803 L667.0,-459.0 L721.00073,-398.2992 L785.0,-329.0 L817.4306,-296.56946 L859.5,-258.5 L878.03033,-243.9773 L897.5,-229.5 L901.6783,-227.21447999999998 L903.5,-226.0 L906.6849,-224.1576 L908.0,-223.5 L909.7672,-223.0 L910.5,-223.0 L911.5,-223.0 L911.0,-224.47217 L911.0,-228.82103999999998 L911.0,-231.5 L910.4924300000001,-236.53796 L909.5,-241.5 L907.03033,-247.3938 L899.4012,-262.33142000000004 L893.0,-273.0 L885.2497599999999,-286.813 L863.5,-328.0 L845.21765,-352.6819 L838.5,-362.5 L814.0,-395.0 L802.0,-411.0 L795.6272,-418.46594 L791.0,-424.0 L790.01483,-424.0 L789.5,-424.0 L789.5,-424.0 L789.5,-424.0 L790.0,-422.5 L790.0,-421.18847999999997 L790.0,-420.5 L790.0,-419.28357 L790.0,-418.5 L790.0,-417.5 L790.0,-416.5 L790.0,-415.32312 L790.0,-414.5 L787.2338,-413.41125 L784.5,-412.5 L769.7119,-408.81458 L753.5,-405.0 L730.1872599999999,-399.04675 L706.0,-393.0 L664.0769700000001,-384.64783 L488.5,-371.0 L413.4262,-372.0 L318.0,-372.0 L267.6802,-373.1394 L224.5,-374.0 L210.72919,-375.0 L205.5,-375.0 L205.0,-375.0 L205.0,-375.0 L899.0,-576.0" stroke-width="20" stroke="green" fill="transparent">
<animate keyTimes="0;0.57;0.59;1" repeatCount="indefinite" attributeName="display" dur="4.40s" begin="0s" values="none;inline;none;none" />
</path>
<path d="M899.0,-576.0 L888.0,-581.5 L881.1671,-587.57104 L853.5,-616.0 L825.79626,-646.484 L791.0,-681.0 L765.3752,-705.6249 L736.0,-731.0 L720.34546,-742.4581 L700.0,-754.0 L689.2323,-754.9613 L686.0,-755.5 L689.0,-755.0 L467.0,-223.0" stroke-width="20" stroke="green" fill="transparent">
<animate keyTimes="0;0.59;0.61;1" repeatCount="indefinite" attributeName="display" dur="4.40s" begin="0s" values="none;inline;none;none" />
</path>
<path d="M467.0,-223.0 L472.5,-231.0 L485.95977999999997,-248.9419 L490.5,-255.5 L512.61237,-284.2423 L521.5,-295.5 L541.9345,-324.10828 L551.5,-337.5 L580.0,-371.0 L593.9187599999999,-385.71057 L601.0,-393.5 L607.47833,-398.4784 L611.5,-402.5 L614.3009,-405.3009 L616.0,-407.0 L616.0,-407.0 L613.5,-406.0 L600.3321,-400.71375 L587.0,-395.0 L548.8388,-375.4474 L518.0,-359.0 L480.98972000000003,-338.5089 L445.5,-317.0 L411.0,-294.0 L368.6859,-272.39197 L322.5,-250.5 L310.6188,-245.40807999999998 L305.0,-242.5 L303.5,-240.5 L304.0,-241.0 L792.0,-585.0" stroke-width="20" stroke="green" fill="transparent">
<animate keyTimes="0;0.61;0.64;1" repeatCount="indefinite" attributeName="display" dur="4.40s" begin="0s" values="none;inline;none;none" />
</path>
<path d="M792.0,-585.0 L786.0,-582.0 L769.13007,-577.739 L731.5,-566.5 L700.9016,-553.9607 L637.5,-525.0 L596.6893,-505.61400000000003 L577.0,-497.0 L545.0,-483.0 L504.0,-467.5 L452.09955,-450.2135 L420.0,-440.0 L374.2974,-431.5995 L338.0,-425.0 L262.5,-417.0 L234.45528,-414.20532000000003 L206.5,-411.5 L185.6521,-410.4807 L168.0,-409.5 L137.5,-410.0 L128.15594,-410.0 L118.5,-410.0 L114.79603600000002,-410.0 L111.0,-410.0 L110.3829,-410.0 L108.5,-408.5 L112.0,-406.5 L127.30118,-398.2771 L163.5,-369.5 L201.5,-343.0 L228.6239,-316.3573 L239.0,-306.5 L263.469,-285.3396 L273.0,-277.0 L290.05197000000004,-259.948 L299.0,-251.0 L313.74048,-237.88293 L322.0,-231.0 L331.23737,-225.88135 L337.0,-223.0 L351.5,-222.0 L361.5,-228.0 L375.0,-236.5 L415.0,-263.5 L432.0,-275.0 L463.5,-294.5 L524.0,-325.0 L562.92145,-336.15686 L586.0,-343.5 L641.0,-355.0 L695.6168,-375.76587 L741.5,-399.0 L776.5955,-413.57300000000004 L806.5,-434.5 L817.8721,-441.4983 L824.0,-445.5 L825.0115400000001,-446.0 L824.0,-445.0 L822.2078,-443.2079 L821.5,-442.5 L818.57336,-441.28674 L817.0,-440.5 L814.6772,-437.67725 L813.0,-436.0 L811.4018599999999,-434.40185999999994 L810.5,-433.5 L807.5,-431.5 L805.0481,-430.52405 L803.0,-429.5 L794.0,-423.0 L772.08484,-414.1095 L726.0,-398.5 L660.2784,-376.1714 L568.0,-351.5 L497.79236,-337.97656 L386.5,-304.5 L311.98717999999997,-284.99695 L226.0,-267.0 L216.85372999999998,-259.42688 L209.0,-255.5 L201.53968999999998,-249.43176 L198.5,-247.0 L199.0,-244.33642999999998 L199.0,-243.0 L208.78278,-233.7738 L216.0,-228.0 L263.42017000000004,-213.6427 L287.5,-207.0 L326.152,-205.75574 L356.0,-204.0 L383.50568,-206.5542 L418.5,-207.5 L427.43195,-209.49023 L448.5,-212.5 L465.1824,-216.32483 L480.0,-219.5 L495.0,-230.0 L500.82922,-243.2113 L496.5,-268.0 L496.5,-268.0 L497.0,-266.0 L356.0,-425.0" stroke-width="20" stroke="green" fill="transparent">
<animate keyTimes="0;0.64;0.66;1" repeatCount="indefinite" attributeName="display" dur="4.40s" begin="0s" values="none;inline;none;none" />
</path>
<path d="M356.0,-425.0 L356.0,-425.0 L369.29285,-418.3214 L375.5,-415.5 L418.6311,-398.32715 L438.5,-390.5 L499.62987999999996,-368.0437 L530.0,-357.0 L641.5,-321.5 L687.409,-310.14185 L738.0,-298.0 L779.0963,-293.19592 L823.5,-287.0 L860.1809699999999,-284.688 L899.5,-281.5 L929.1297599999999,-280.16882000000004 L975.5,-277.5 L992.7029,-275.75427 L1004.5,-273.5 L1006.5,-272.5 L1006.1103,-271.88965 L1004.5,-269.5 L990.0075,-263.00317 L984.0,-260.5 L937.0368699999999,-253.33947999999998 L920.0,-250.5 L834.5,-246.0 L767.3681,-240.57886000000002 L739.0,-238.0 L682.1134,-234.1626 L641.0,-231.0 L601.8861,-229.94287000000003 L568.5,-227.5 L503.0,-229.0 L468.56307999999996,-233.78113 L445.0,-236.5 L423.6883,-238.07056 L401.5,-240.0 L378.0,-242.5 L372.55777,-242.0 L367.0,-240.5 L365.5,-239.5 L364.5,-237.5 L365.0,-235.5 L365.0,-236.0 L595.0,-561.0" stroke-width="20" stroke="green" fill="transparent">
<animate keyTimes="0;0.66;0.68;1" repeatCount="indefinite" attributeName="display" dur="4.40s" begin="0s" values="none;inline;none;none" />
</path>
<path d="M595.0,-561.0 L598.0,-547.5 L611.35156,-525.80237 L618.0,-514.5 L646.16437,-476.15442 L662.0,-456.0 L695.8876,-411.91516 L717.5,-385.5 L768.0,-319.5 L793.48065,-289.45557 L813.0,-265.5 L826.17755,-249.28442 L840.0,-232.5 L849.5,-221.5 L856.0,-214.5 L863.0,-207.0 L864.5,-204.5 L861.0,-222.0 L850.5,-262.5 L837.0,-309.5 L831.54156,-332.83386 L827.5,-352.0 L826.9012,-360.74133 L828.5,-387.0 L828.99915,-393.9956 L829.5,-396.5 L830.9384,-399.8152 L831.5,-401.5 L832.0,-402.5 L831.0,-402.0 L820.1592,-402.0 L812.0,-402.0 L774.0,-392.5 L739.15015,-384.57312 L715.0,-379.0 L640.5,-361.0 L586.08545,-354.71423 L547.5,-349.5 L496.11115,-347.80664 L409.0,-348.0 L329.82492,-350.58142000000004 L248.5,-356.5 L220.14577999999997,-356.0 L182.5,-356.0 L174.7083,-353.94165 L170.5,-351.5 L174.88316,-348.08765 L177.0,-346.5 L179.5,-345.0 L178.0,-346.0 L897.0,-262.0" stroke-width="20" stroke="green" fill="transparent">
<animate keyTimes="0;0.68;0.70;1" repeatCount="indefinite" attributeName="display" dur="4.40s" begin="0s" values="none;inline;none;none" />
</path>
<path d="M897.0,-262.0 L895.0,-263.0 L867.0,-294.0 L847.5,-317.0 L799.0,-381.0 L765.90356,-428.96448 L749.5,-452.5 L725.9157,-491.35327 L712.0,-513.0 L697.3138,-534.3634 L686.5,-551.0 L679.2794,-562.2009 L674.0,-571.0 L671.3325,-574.6675 L668.5,-577.5 L669.0,-576.50195 L669.0,-575.5 L673.32263,-570.23645 L672.0,-572.0 L1009.0,-231.0" stroke-width="20" stroke="green" fill="transparent">
<animate keyTimes="0;0.70;0.73;1" repeatCount="indefinite" attributeName="display" dur="4.40s" begin="0s" values="none;inline;none;none" />
</path>
<path d="M1009.0,-231.0 L1006.5,-226.0 L1005.4309,-223.29272000000003 L1004.5,-220.5 L1001.96045,-216.9209 L1000.0,-213.0 L995.1339,-207.66736 L988.0,-201.0 L977.9118699999999,-192.36608999999999 L961.0,-179.5 L935.3932,-165.97937 L852.0,-138.5 L769.7739,-127.3219 L644.5,-126.0 L546.4217,-137.89917 L438.5,-166.0 L391.7336,-181.0852 L344.5,-193.0 L336.57623,-193.90393 L333.0,-194.5 L332.15546,-194.0 L331.5,-194.0 L335.9417,-191.42334 L339.5,-190.0 L374.23526,-180.14197 L396.5,-174.0 L452.0,-167.0 L491.82757999999995,-167.5653 L563.39124,-172.63916 L634.21625,-183.45105 L663.5,-188.5 L704.3059,-194.77258 L726.5,-199.0 L763.98914,-203.73718 L788.5,-208.0 L819.0,-212.0 L847.0476,-211.0 L867.0,-207.0 L870.31036,-203.6897 L870.0,-200.0 L851.28174,-191.68579 L777.5,-179.5 L718.7152,-184.62548999999999 L701.5,-187.0 L650.56683,-199.95972 L635.0,-204.5 L585.7995,-233.1051 L571.5,-244.0 L524.0,-280.5 L504.7447,-313.7589 L495.0,-330.0 L476.0,-363.5 L464.0,-389.0 L457.0,-397.5 L455.06784000000005,-398.46606 L453.0,-399.5 L439.5,-397.0 L424.28045999999995,-387.52026 L396.5,-368.0 L383.00937000000005,-358.11792 L347.0,-313.5 L321.58972,-277.55676 L295.0,-225.5 L287.70932,-214.53491 L278.0,-205.5 L274.0,-204.0 L268.5,-202.0 L257.0183,-203.88683999999998 L251.5,-204.5 L237.72057,-211.96765 L231.0,-216.0 L209.91281,-233.77771 L197.5,-244.0 L170.6349,-264.5514 L155.5,-276.5 L126.85076000000001,-311.12805 L105.0,-335.5 L92.5,-349.5 L74.0,-385.0 L71.856926,-393.8219 L68.0,-402.5 L66.50845,-407.94922 L65.5,-414.0 L68.27965999999999,-416.27966000000004 L71.5,-419.5 L89.019745,-424.79272000000003 L182.0,-422.0 L273.75012000000004,-418.00867 L303.0,-417.0 L407.3823,-424.9525 L540.5,-457.5 L613.2774,-487.0702 L723.5,-536.0 L762.8165,-553.52026 L782.5,-561.5 L808.5,-580.5 L820.8124,-591.9608 L826.0,-596.5 L829.25806,-601.25806 L831.5,-603.5 L832.0,-604.7366 L832.0,-605.5 L830.5332599999999,-603.5333 L825.9631,-584.306 L822.0,-563.5 L819.8815,-515.51135 L818.0,-476.0 L819.0,-425.35815 L819.0,-381.0 L820.5,-268.5 L821.38995,-242.18274 L819.5,-180.5 L814.4382,-158.19092 L810.0,-154.0 L805.49194,-156.33875 L781.5,-191.5 L758.41,-245.55945 L737.5,-341.0 L734.48157,-388.10107 L732.0,-418.5 L731.5,-482.0 L735.2950400000001,-502.65552 L737.5,-522.5 L739.5,-537.5 L739.0,-538.9608 L739.0,-541.5 L738.4374,-541.0 L737.5,-541.0 L735.38983,-537.8530000000001 L732.5,-534.0 L719.8225,-522.2977 L706.5,-510.0 L677.0,-490.5 L638.6573,-464.32665999999995 L585.5,-433.0 L530.0,-409.0 L510.35272000000003,-395.29822 L479.5,-374.5 L470.23273,-368.48852999999997 L464.0,-363.0 L463.03427,-362.0343 L462.5,-361.5 L462.0,-360.08997 L462.0,-359.5 L462.0,-358.1537 L462.0,-357.5 L463.5,-356.5 L464.5,-355.5 L468.17868,-355.0 L470.5,-355.0 L470.0,-353.32507000000004 L470.0,-352.5 L470.0,-353.0 L470.0,-207.0" stroke-width="20" stroke="green" fill="transparent">
<animate keyTimes="0;0.73;0.75;1" repeatCount="indefinite" attributeName="display" dur="4.40s" begin="0s" values="none;inline;none;none" />
</path>
<path d="M470.0,-207.0 L475.5,-204.5 L509.0,-202.5 L544.1219,-203.64001000000002 L572.5,-204.5 L612.19934,-206.10474 L652.0,-208.0 L688.36816,-211.04456000000002 L726.5,-213.0 L755.7217,-214.86597000000003 L790.5,-215.5 L808.59106,-216.0 L830.0,-216.0 L841.84265,-216.0 L859.0,-216.0 L865.02136,-216.0 L870.0,-216.0 L871.14075,-216.0 L873.5,-216.0 L877.0,-217.5 L896.0,-218.0 L914.1501,-219.0 L923.5,-219.0 L944.5246,-219.0 L955.0,-219.0 L968.7043,-219.0 L976.5,-219.0 L982.6873,-219.0 L986.5,-219.0 L991.5,-219.0 L993.5,-219.0 L995.63043,-218.0 L996.5,-218.0 L997.5448,-218.0 L998.5,-218.0 L999.5,-218.0 L999.0,-217.0 L998.0,-217.0 L994.7703,-216.25683999999998 L992.5,-215.5 L977.2926,-214.3302 L966.5,-213.5 L947.8620599999999,-213.0 L934.5,-213.0 L908.69354,-213.0 L890.0,-213.0 L873.5,-211.5 L867.928,-212.0 L862.0,-212.0 L854.0,-208.5 L851.7186,-207.71863000000002 L849.5,-208.0 L847.8315,-208.0 L844.0,-208.0 L835.5975,-209.06714 L807.5,-221.0 L765.73035,-249.88367000000002 L748.5,-261.0 L701.6126,-297.21533 L677.5,-317.0 L596.0,-387.0 L541.5094,-433.23717999999997 L507.5,-461.0 L443.0,-519.0 L424.48015999999996,-538.9332 L404.0,-556.0 L386.3256,-566.72266 L374.5,-574.0 L370.2356,-576.1057 L365.5,-578.0 L363.01453,-578.0 L361.0,-578.0 L360.56442000000004,-575.2577 L359.5,-571.0 L358.5,-561.0 L361.26474,-524.7049599999999 L359.5,-496.0 L349.76865,-474.53735 L324.0,-448.5 L300.86935,-432.2173 L251.5,-413.5 L232.29693999999998,-408.099 L226.0,-406.0 L214.0,-400.5 L203.5,-395.5 L192.11638,-390.55823 L187.0,-388.0 L185.0,-385.5 L182.5,-382.5 L180.47423999999998,-378.47424 L179.0,-377.0 L180.0,-378.0 L822.0,-230.0" stroke-width="20" stroke="green" fill="transparent">
<animate keyTimes="0;0.75;0.77;1" repeatCount="indefinite" attributeName="display" dur="4.40s" begin="0s" values="none;inline;none;none" />
</path>
<path d="M822.0,-230.0 L815.5,-227.5 L799.5,-227.0 L771.26373,-232.04297000000003 L755.0,-235.0 L706.1927,-246.95557000000002 L673.5,-254.5 L625.5,-263.5 L562.5,-275.5 L510.0,-286.5 L456.0,-300.5 L399.2057,-314.9165 L345.0,-327.5 L306.72296,-335.25537 L260.5,-344.5 L202.0,-355.0 L186.81946000000002,-357.42273 L162.5,-362.0 L156.12682,-362.0 L155.0,-360.5 L170.5,-358.5 L172.0,-358.0 L172.0,-358.0 L886.0,-562.0" stroke-width="20" stroke="green" fill="transparent">
<animate keyTimes="0;0.77;0.80;1" repeatCount="indefinite" attributeName="display" dur="4.40s" begin="0s" values="none;inline;none;none" />
</path>
<path d="M886.0,-562.0 L886.0,-562.0 L881.0,-554.0 L874.78705,-538.46765 L865.0,-496.0 L860.24176,-452.41736 L858.5,-435.0 L854.0,-366.5 L851.34375,-322.98474 L845.10016,-271.60107 L842.0,-253.0 L832.5,-229.0 L828.3969999999999,-223.74622000000002 L825.0,-219.5 L822.5,-217.5 L818.0,-216.0 L811.3166,-220.15722999999997 L804.5,-226.0 L784.7797,-258.98047 L745.8164,-336.77637000000004 L718.0,-437.0 L696.64276,-509.29247999999995 L678.0,-554.0 L671.5,-567.5 L670.2116,-568.37964 L665.0,-571.5 L661.0,-564.0 L663.5,-533.0 L674.2687,-504.04735999999997 L721.5,-398.0 L750.5769,-333.20862 L762.5,-312.5 L787.57623,-269.2882 L813.12274,-233.11707 L835.47565,-216.40233999999998 L844.872,-213.0 L848.59485,-213.59485 L848.4621,-216.61377000000002 L838.2462,-225.83582 L807.8919999999999,-240.98718 L751.77985,-257.33276 L678.0,-273.0 L596.62964,-293.34252999999995 L485.0,-332.5 L417.94394,-348.6516 L300.5,-389.0 L242.94664,-410.35107 L195.0,-425.5 L183.73029,-426.81737999999996 L179.0,-428.0 L178.14394,-427.0 L177.5,-427.0 L178.6049,-427.0 L180.0,-427.0 L206.17717,-427.69347999999997 L221.5,-428.5 L257.12622000000005,-436.7953 L277.5,-442.5 L304.0033,-458.93285999999995 L329.5,-473.0 L347.23193,-486.5266 L364.0,-500.5 L385.0,-524.5 L405.0,-544.0 L427.0,-566.0 L464.0,-585.0 L482.71234000000004,-577.9150400000001 L505.5,-552.5 L535.3644,-490.93347 L558.5,-407.0 L566.3230599999999,-341.9851 L574.0,-268.0 L577.88477,-225.1521 L579.0,-214.0 L581.7511,-204.99548000000001 L583.0,-200.0 L585.6569999999999,-197.51453 L587.0,-195.5 L600.89935,-193.25842 L610.0,-192.5 L628.9664,-196.13562 L640.0,-198.5 L678.5368,-203.61523 L736.8296,-210.97863999999998 L773.0,-215.5 L792.8138,-221.36243 L820.5,-229.0 L843.2145,-236.87976 L862.5,-245.0 L886.7159,-255.22437000000002 L911.5,-266.0 L921.0,-273.0 L941.8366,-293.51697 L963.5,-318.5 L969.8366,-326.04578 L972.5,-331.0 L971.0045,-331.0 L970.5,-331.0 L957.0102,-332.0 L952.0,-332.0 L891.5,-317.5 L864.5,-309.0 L816.0,-296.5 L759.7356599999999,-281.8479 L725.0,-274.5 L670.44214,-262.53064 L628.5,-254.0 L590.46643,-241.06335 L559.5,-232.0 L488.0,-212.0 L446.09454000000005,-205.12024 L429.5,-202.5 L389.5,-196.5 L380.5,-196.0 L356.5,-193.5 L346.30492999999996,-192.0763 L338.0,-190.0 L342.0,-191.0 L360.0,-566.0" stroke-width="20" stroke="green" fill="transparent">
<animate keyTimes="0;0.80;0.82;1" repeatCount="indefinite" attributeName="display" dur="4.40s" begin="0s" values="none;inline;none;none" />
</path>
<path d="M360.0,-566.0 L362.0,-564.0 L376.94583,-556.5271 L399.0,-544.0 L437.9509,-526.2118 L476.5,-508.5 L521.38025,-484.18604000000005 L574.5,-456.0 L614.1058,-432.76635999999996 L708.0,-369.5 L760.52484,-322.31702 L816.0,-274.0 L838.7645,-251.35315 L865.5,-230.0 L874.352,-223.76538 L883.5,-216.5 L886.81055,-214.18945 L888.0,-213.0 L890.6976,-210.30237000000002 L892.0,-209.0 L896.3884,-206.40771 L898.5,-205.0 L902.2066,-203.52893 L904.5,-202.0 L908.3127,-202.0 L910.0,-202.0 L911.59827,-202.0 L912.5,-202.0 L912.5,-202.0 L912.0,-206.5 L905.5609,-228.34436000000002 L896.5,-251.5 L882.4609,-271.3739 L865.5,-313.0 L809.0,-416.0 L795.5318,-454.6599 L788.0,-476.0 L770.4969,-521.5094 L767.5,-528.0 L768.0,-528.5 L779.5,-518.0 L798.5,-501.5 L834.5,-478.0 L853.0,-458.0 L872.0,-438.0 L902.15625,-414.92102 L917.5,-402.0 L935.3566,-379.12915 L946.5,-366.5 L966.237,-352.18408 L976.5,-343.5 L982.1259,-337.2489 L986.5,-332.0 L992.5,-323.0 L994.06836,-318.3291 L996.0,-313.5 L996.48535,-308.08777000000003 L997.5,-302.0 L999.0,-280.0398 L967.0963,-240.82825 L882.0,-213.0 L796.1159,-206.21155 L653.0,-210.5 L537.8751,-230.38635 L298.0,-292.5 L217.5,-320.0 L164.12389,-340.62537000000003 L128.5,-352.5 L94.0,-360.5 L89.34434,-360.55188 L85.0,-362.0 L82.0,-361.0 L81.0,-361.0 L81.0,-359.36487 L81.0,-358.5 L112.371574,-346.02856 L143.0,-335.5 L218.0,-312.5 L245.34523,-306.4137 L279.0,-298.0 L299.0,-294.5 L344.9455,-287.0078 L373.0,-282.0 L389.0596,-278.54236000000003 L401.5,-272.0 L401.11502,-270.77002000000005 L401.03125,-252.125 L400.0,-248.0 L390.42194,-232.70325 L387.0,-227.0 L377.72565,-217.72558999999998 L374.0,-214.0 L364.34354,-208.67175 L359.0,-206.0 L346.49698,-206.0 L326.34772000000004,-209.11963 L320.0,-211.5 L315.15466000000004,-215.27625 L310.5,-219.0 L305.62625,-233.12122000000002 L299.5,-256.0 L302.48126,-275.29395 L306.5,-291.0 L312.14218,-305.99805 L317.5,-321.0 L336.0,-361.5 L340.74747,-383.98987 L346.0,-405.5 L346.0,-425.0 L346.0,-440.74987999999996 L346.0,-449.5 L346.0,-448.0 L455.0,-232.0" stroke-width="20" stroke="green" fill="transparent">
<animate keyTimes="0;0.82;0.84;1" repeatCount="indefinite" attributeName="display" dur="4.40s" begin="0s" values="none;inline;none;none" />
</path>
<path d="M455.0,-232.0 L461.0,-227.5 L495.5,-217.5 L528.172,-213.67615 L558.5,-210.0 L598.7749,-208.98718 L641.5,-207.0 L678.9075,-206.53699 L723.5,-205.5 L792.5,-206.0 L812.6131,-206.0 L860.5,-206.0 L883.6796,-206.0 L898.0,-207.5 L899.1292,-209.12927 L890.5,-220.0 L892.0,-218.0 L498.0,-277.0" stroke-width="20" stroke="green" fill="transparent">
<animate keyTimes="0;0.84;0.86;1" repeatCount="indefinite" attributeName="display" dur="4.40s" begin="0s" values="none;inline;none;none" />
</path>
<path d="M498.0,-277.0 L498.0,-277.0 L498.0,-277.0 L499.5,-284.0 L519.0,-316.0 L536.7884,-345.46143 L553.5,-371.5 L559.7242,-382.08617999999996 L563.5,-390.5 L561.9397,-390.0 L547.0,-387.0 L521.63367,-372.35205 L512.0,-367.0 L459.0,-336.5 L421.8738,-312.13318 L403.0,-300.0 L369.5,-278.5 L349.13495,-267.20532000000003 L337.5,-261.0 L328.42194,-255.38391000000001 L322.5,-252.0 L319.5357,-250.76782000000003 L316.0,-249.0 L315.0,-247.0 L316.0,-248.0 L677.0,-561.0" stroke-width="20" stroke="green" fill="transparent">
<animate keyTimes="0;0.86;0.89;1" repeatCount="indefinite" attributeName="display" dur="4.40s" begin="0s" values="none;inline;none;none" />
</path>
<path d="M677.0,-561.0 L677.0,-561.0 L675.53906,-558.0781 L674.3587,-552.1521 L673.5,-547.0 L674.60046,-526.99023 L675.5,-509.0 L679.0531599999999,-464.88428 L681.0,-424.0 L680.5179400000001,-376.34302 L679.5,-328.5 L675.252,-292.9574 L671.0,-251.5 L668.86426,-229.64282000000003 L664.0,-190.5 L661.5,-181.5 L661.0,-179.5 L661.0,-181.15112 L671.0,-208.5 L690.84906,-251.76892 L723.5,-331.5 L745.0555400000001,-386.5714 L753.0,-407.0 L764.0,-437.0 L773.0,-469.0 L776.0,-494.5 L773.45166,-506.19324000000006 L772.0,-512.0 L767.0,-515.5 L758.5,-519.0 L728.0,-528.0 L706.1343400000001,-532.3392299999999 L686.0,-536.0 L670.9494599999999,-538.6101 L656.5,-541.5 L643.4943,-541.0 L627.0,-541.0 L595.0,-536.5 L586.5543,-532.51807 L547.0,-510.5 L512.32275,-490.14172 L447.0,-446.5 L402.31104,-419.4286 L351.5,-386.5 L311.68683,-358.06199999999995 L275.0,-317.5 L260.4384,-290.7672 L256.0,-283.0 L253.5,-257.5 L262.5,-237.0 L277.6399,-222.08007999999998 L287.0,-213.5 L322.28766,-199.08496 L342.5,-191.0 L360.9332,-184.93335 L380.0,-178.0 L399.59463999999997,-174.38855 L425.85177999999996,-170.46802 L436.5,-169.5 L443.25824000000006,-170.0 L450.5,-170.0 L452.5,-172.5 L450.5,-174.5 L443.04385,-180.71716 L423.0,-191.5 L397.99884,-198.61571999999998 L377.0,-204.0 L367.5,-205.5 L360.0,-207.5 L356.31506,-208.89502 L354.5,-209.5 L350.0,-211.5 L346.0,-213.5 L344.0,-213.0 L343.5,-213.0 L342.31412,-213.0 L340.5,-213.0 L339.5,-213.0 L339.5,-213.0 L339.5,-213.0 L339.5,-213.0 L339.5,-213.0 L340.0,-214.90015 L340.0,-217.0 L340.0,-217.0 L340.0,-217.0 L933.0,-263.0" stroke-width="20" stroke="green" fill="transparent">
<animate keyTimes="0;0.89;0.91;1" repeatCount="indefinite" attributeName="display" dur="4.40s" begin="0s" values="none;inline;none;none" />
</path>
<path d="M933.0,-263.0 L931.5,-261.5 L929.0,-260.5 L919.5,-258.0 L883.5,-252.5 L846.1477,-249.07007000000002 L808.5,-245.0 L675.5,-239.0 L597.0709,-239.0 L524.5,-239.0 L489.03295999999995,-236.90637 L459.5,-232.0 L452.0412,-230.01647999999997 L449.5,-229.0 L447.1254,-228.06274 L446.0,-227.5 L446.0,-226.12122000000002 L446.0,-225.5 L447.5,-224.5 L448.5,-223.5 L448.0,-224.0 L160.0,-216.0" stroke-width="20" stroke="green" fill="transparent">
<animate keyTimes="0;0.91;0.93;1" repeatCount="indefinite" attributeName="display" dur="4.40s" begin="0s" values="none;inline;none;none" />
</path>
<path d="M160.0,-216.0 L161.44807,-214.55187999999998 L181.0,-212.5 L230.84091,-213.0 L356.0,-218.5 L440.33575,-228.5653 L473.5,-232.5 L598.5,-251.5 L672.93066,-262.65637000000004 L709.0,-268.0 L809.0,-280.0 L843.3843,-283.1516 L870.0,-285.5 L898.0,-285.0 L907.5,-283.5 L906.4641,-282.4641 L905.5,-281.5 L888.3435699999999,-278.0625 L866.0,-274.0 L805.09247,-268.8152 L744.5,-263.5 L568.0,-243.0 L484.5043,-227.7008 L387.0,-211.0 L348.22537,-205.547 L314.0,-199.0 L310.94614,-199.0 L310.0,-199.0 L329.5,-202.0 L363.5,-205.5 L447.0,-210.0 L505.8265,-217.0354 L528.0,-220.5 L597.0,-251.0 L636.2672,-269.32764 L654.0,-279.0 L685.6155,-302.21252000000004 L704.5,-317.5 L726.5,-344.5 L738.2627,-361.89404 L748.0,-376.5 L759.0,-389.5 L761.66364,-391.24768 L766.0,-394.5 L770.0,-394.5 L779.46326,-386.53674 L808.0,-340.5 L833.47546,-281.28735 L858.0,-221.5 L863.3369,-212.32617000000002 L870.5,-203.5 L874.9236,-203.0 L876.5,-203.0 L880.0,-224.5 L869.0293,-269.8828 L864.5,-288.0 L848.5,-347.5 L834.0,-371.0 L797.0,-454.0 L780.33405,-493.02234000000004 L769.0,-516.5 L755.33527,-535.08826 L745.5,-548.5 L739.01324,-552.84766 L732.5,-557.5 L713.0,-562.0 L695.19556,-557.7046 L677.5,-552.5 L664.8701,-543.7307 L620.5,-504.0 L582.90704,-475.4729 L518.5,-427.0 L485.9417,-409.36963 L446.5,-394.0 L436.30084000000005,-387.60046 L431.5,-383.5 L439.07513,-375.93555 L464.0,-357.0 L464.0,-357.0 L989.0,-271.0" stroke-width="20" stroke="green" fill="transparent">
<animate keyTimes="0;0.93;0.95;1" repeatCount="indefinite" attributeName="display" dur="4.40s" begin="0s" values="none;inline;none;none" />
</path>
<path d="M989.0,-271.0 L983.5,-264.5 L977.5,-260.0 L972.9895,-255.99097000000003 L923.0,-228.0 L878.1824300000001,-213.38977000000003 L779.28455,-189.85693 L745.0,-183.0 L670.9881,-180.46387 L630.0,-179.0 L563.71643,-184.7843 L519.5,-188.0 L464.5,-192.0 L436.5,-196.0 L398.70767,-200.7865 L377.0,-203.5 L354.5,-205.0 L342.0,-207.0 L340.02477999999996,-206.0 L336.0,-206.0 L337.43845,-205.0 L338.5,-205.0 L353.1048,-202.25366 L434.7169,-196.3927 L526.0,-196.5 L599.6887,-205.89185 L663.0,-220.0 L693.7524400000001,-227.46729 L704.5,-233.0 L705.995,-233.995 L706.5,-234.5 L690.0315,-245.31238 L681.5,-251.0 L627.2525,-280.18152000000003 L568.1453,-318.83704 L546.5,-333.5 L523.5296599999999,-345.73096 L513.0,-352.5 L497.20068,-364.76867999999996 L486.5,-373.0 L476.77297999999996,-379.26685 L470.0,-383.5 L466.62976,-383.59252999999995 L463.0,-384.5 L461.92584000000005,-383.4629 L460.0,-382.5 L454.5,-375.0 L449.96207000000004,-367.33936 L434.5,-326.0 L419.68655,-280.92725 L386.5,-218.5 L370.5,-200.0 L361.19086,-190.19092 L346.0,-187.0 L327.63034,-195.17065 L300.5,-219.5 L274.3983,-244.76623999999998 L264.5,-253.5 L218.5,-282.0 L176.15468,-312.69177 L155.0,-327.5 L130.59158,-343.66724 L107.5,-358.0 L97.47010999999999,-369.5299 L88.5,-378.5 L83.44589,-383.55408 L80.0,-387.0 L79.0,-389.5 L78.5,-391.0 L87.38186,-392.5818 L101.0,-395.5 L150.018,-392.16516 L200.0,-388.0 L493.0,-415.0 L586.58875,-452.5381 L702.0,-504.0 L800.0,-554.5 L837.2023,-568.6715 L855.0,-576.0 L881.5,-590.5 L887.62665,-592.81335 L890.0,-594.0 L889.0,-592.1582 L889.0,-591.5 L876.1376,-583.42505 L868.0,-578.0 L809.085,-558.6157 L784.0,-550.5 L660.0,-510.0 L573.5059,-483.62255999999996 L522.0,-469.5 L460.0,-433.0 L411.5,-407.5 L359.50397000000004,-374.0027 L320.5,-348.0 L283.447,-323.55762000000004 L246.5,-294.0 L228.30164,-280.53967 L193.0,-247.5 L179.71900000000002,-233.71900000000002 L175.0,-224.0 L180.63516,-216.20605 L231.5,-196.0 L269.5,-189.5 L273.76346,-190.9237 L349.0,-189.0 L372.6627,-189.0 L386.0,-189.0 L411.0,-190.5 L414.44775,-191.81592 L416.5,-192.5 L417.74454,-193.7445 L414.50653,-197.7948 L410.5,-201.0 L367.0,-234.0 L342.5,-250.0 L285.5,-281.5 L264.46497,-294.21582 L246.0,-305.5 L221.0,-325.0 L213.78083999999998,-328.60962 L210.0,-331.5 L210.0,-337.76135 L215.43881000000002,-346.43883999999997 L215.0,-346.0 L916.0,-565.0" stroke-width="20" stroke="green" fill="transparent">
<animate keyTimes="0;0.95;0.98;1" repeatCount="indefinite" attributeName="display" dur="4.40s" begin="0s" values="none;inline;none;none" />
</path>
<path d="M916.0,-565.0 L907.0,-569.0 L891.0,-581.0 L863.0,-602.5 L850.5,-615.0 L834.5,-631.5 L804.5,-668.0 L783.4132,-696.9939 L772.5,-713.0 L766.4646,-720.0471 L762.0,-726.0 L765.0,-722.0" stroke-width="20" stroke="green" fill="transparent">
<animate keyTimes="0;0.98;1.00;1" repeatCount="indefinite" attributeName="display" dur="4.40s" begin="0s" values="none;inline;none;none" />
</path>
</g>
</svg>