<?xml version="1.0" encoding="UTF-8"?>
<svg xmlns="http://www.w3.org/2000/svg" xmlns:xlink="http://www.w3.org/1999/xlink"
     width="1080" height="664" viewBox="0 0 1080 664">
<defs>
</defs>
<g transform="scale(1,-1)">
<g transform="translate(0,-100)">
<rect x="0" y="-141" width="108" height="141" fill="transparent" stroke-width="5" stroke="blue" />
<rect x="108" y="-141" width="108" height="141" fill="transparent" stroke-width="5" stroke="blue" />
<rect x="216" y="-141" width="108" height="141" fill="transparent" stroke-width="5" stroke="blue" />
<rect x="324" y="-141" width="108" height="141" fill="transparent" stroke-width="5" stroke="blue" />
<rect x="432" y="-141" width="108" height="141" fill="transparent" stroke-width="5" stroke="blue" />
<rect x="540" y="-141" width="108" height="141" fill="transparent" stroke-width="5" stroke="blue" />
<rect x="648" y="-141" width="108" height="141" fill="transparent" stroke-width="5" stroke="blue" />
<rect x="756" y="-141" width="108" height="141" fill="transparent" stroke-width="5" stroke="blue" />
<rect x="864" y="-141" width="108" height="141" fill="transparent" stroke-width="5" stroke="blue" />
<rect x="972" y="-141" width="108" height="141" fill="transparent" stroke-width="5" stroke="blue" />
<rect x="54" y="-282" width="108" height="141" fill="transparent" stroke-width="5" stroke="blue" />
<rect x="162" y="-282" width="108" height="141" fill="transparent" stroke-width="5" stroke="blue" />
<rect x="270" y="-282" width="108" height="141" fill="transparent" stroke-width="5" stroke="blue" />
<rect x="378" y="-282" width="108" height="141" fill="transparent" stroke-width="5" stroke="blue" />
<rect x="486" y="-282" width="108" height="141" fill="transparent" stroke-width="5" stroke="blue" />
<rect x="594" y="-282" width="108" height="141" fill="transparent" stroke-width="5" stroke="blue" />
<rect x="702" y="-282" width="108" height="141" fill="transparent" stroke-width="5" stroke="blue" />
<rect x="810" y="-282" width="108" height="141" fill="transparent" stroke-width="5" stroke="blue" />
<rect x="918" y="-282" width="108" height="141" fill="transparent" stroke-width="5" stroke="blue" />
<rect x="0" y="-423" width="162" height="141" fill="transparent" stroke-width="5" stroke="blue" />
<rect x="162" y="-423" width="108" height="141" fill="transparent" stroke-width="5" stroke="blue" />
<rect x="270" y="-423" width="108" height="141" fill="transparent" stroke-width="5" stroke="blue" />
<rect x="378" y="-423" width="108" height="141" fill="transparent" stroke-width="5" stroke="blue" />
<rect x="486" y="-423" width="108" height="141" fill="transparent" stroke-width="5" stroke="blue" />
<rect x="594" y="-423" width="108" height="141" fill="transparent" stroke-width="5" stroke="blue" />
<rect x="702" y="-423" width="108" height="141" fill="transparent" stroke-width="5" stroke="blue" />
<rect x="810" y="-423" width="108" height="141" fill="transparent" stroke-width="5" stroke="blue" />
<rect x="918" y="-423" width="162" height="141" fill="transparent" stroke-width="5" stroke="blue" />
<rect x="119" y="-564" width="140" height="141" fill="transparent" stroke-width="5" stroke="blue" />
<rect x="259" y="-564" width="108" height="141" fill="transparent" stroke-width="5" stroke="blue" />
<rect x="367" y="-564" width="432" height="141" fill="transparent" stroke-width="5" stroke="blue" />
<rect x="799" y="-564" width="108" height="141" fill="transparent" stroke-width="5" stroke="blue" />
<rect x="907" y="-564" width="173" height="141" fill="transparent" stroke-width="5" stroke="blue" />
<g transform="scale(1,-1)">
<text x="54.0" y="70.5" font-size="25.0" text-anchor="middle" transform="translate(0,12.5)">q</text>
<text x="162.0" y="70.5" font-size="25.0" text-anchor="middle" transform="translate(0,12.5)">w</text>
<text x="270.0" y="70.5" font-size="25.0" text-anchor="middle" transform="translate(0,12.5)">e</text>
<text x="378.0" y="70.5" font-size="25.0" text-anchor="middle" transform="translate(0,12.5)">r</text>
<text x="486.0" y="70.5" font-size="25.0" text-anchor="middle" transform="translate(0,12.5)">t</text>
<text x="594.0" y="70.5" font-size="25.0" text-anchor="middle" transform="translate(0,12.5)">y</text>
<text x="702.0" y="70.5" font-size="25.0" text-anchor="middle" transform="translate(0,12.5)">u</text>
<text x="810.0" y="70.5" font-size="25.0" text-anchor="middle" transform="translate(0,12.5)">i</text>
<text x="918.0" y="70.5" font-size="25.0" text-anchor="middle" transform="translate(0,12.5)">o</text>
<text x="1026.0" y="70.5" font-size="25.0" text-anchor="middle" transform="translate(0,12.5)">p</text>
<text x="108.0" y="211.5" font-size="25.0" text-anchor="middle" transform="translate(0,12.5)">a</text>
<text x="216.0" y="211.5" font-size="25.0" text-anchor="middle" transform="translate(0,12.5)">s</text>
<text x="324.0" y="211.5" font-size="25.0" text-anchor="middle" transform="translate(0,12.5)">d</text>
<text x="432.0" y="211.5" font-size="25.0" text-anchor="middle" transform="translate(0,12.5)">f</text>
<text x="540.0" y="211.5" font-size="25.0" text-anchor="middle" transform="translate(0,12.5)">g</text>
<text x="648.0" y="211.5" font-size="25.0" text-anchor="middle" transform="translate(0,12.5)">h</text>
<text x="756.0" y="211.5" font-size="25.0" text-anchor="middle" transform="translate(0,12.5)">j</text>
<text x="864.0" y="211.5" font-size="25.0" text-anchor="middle" transform="translate(0,12.5)">k</text>
<text x="972.0" y="211.5" font-size="25.0" text-anchor="middle" transform="translate(0,12.5)">l</text>
<text x="216.0" y="352.5" font-size="25.0" text-anchor="middle" transform="translate(0,12.5)">z</text>
<text x="324.0" y="352.5" font-size="25.0" text-anchor="middle" transform="translate(0,12.5)">x</text>
<text x="432.0" y="352.5" font-size="25.0" text-anchor="middle" transform="translate(0,12.5)">c</text>
<text x="540.0" y="352.5" font-size="25.0" text-anchor="middle" transform="translate(0,12.5)">v</text>
<text x="648.0" y="352.5" font-size="25.0" text-anchor="middle" transform="translate(0,12.5)">b</text>
<text x="756.0" y="352.5" font-size="25.0" text-anchor="middle" transform="translate(0,12.5)">n</text>
<text x="864.0" y="352.5" font-size="25.0" text-anchor="middle" transform="translate(0,12.5)">m</text>
<text x="313.0" y="493.5" font-size="25.0" text-anchor="middle" transform="translate(0,12.5)">,</text>
<text x="583.0" y="493.5" font-size="25.0" text-anchor="middle" transform="translate(0,12.5)"> </text>
<text x="853.0" y="493.5" font-size="25.0" text-anchor="middle" transform="translate(0,12.5)">.</text>
</g>
</g>
<g>
<path d="M702.0,-170.0 L666.0,-170.0 L630.0,-170.0 L594.0,-170.0 L558.0,-170.0 L522.0,-170.0 L486.0,-170.0 L450.0,-170.0 L414.0,-170.0 L378.0,-170.0 L378.0,-170.0 L378.0,-170.0" stroke-width="5" stroke="green" fill="transparent" />
<text x="10" y="40" font-size="40" transform="scale(1, -1)">0: ur</text>
<animate keyTimes="0;0.00;1.00;1" repeatCount="indefinite" attributeName="display" dur="0.20s" begin="0s" values="none;inline;none;none" />
</g>
</g>
</svg>